<svg width="21" height="21" viewBox="0 0 21 21" fill="none" xmlns="http://www.w3.org/2000/svg">
<path d="M14 4H12C12 2.93913 11.5786 1.92172 10.8284 1.17157C10.0783 0.421427 9.06087 0 8 0C6.93913 0 5.92172 0.421427 5.17157 1.17157C4.42143 1.92172 4 2.93913 4 4H2C1.46957 4 0.960859 4.21071 0.585786 4.58579C0.210714 4.96086 0 5.46957 0 6L0 12.6667C0.00105857 13.5504 0.352588 14.3976 0.97748 15.0225C1.60237 15.6474 2.4496 15.9989 3.33333 16H9.33333C9.51014 16 9.67971 15.9298 9.80474 15.8047C9.92976 15.6797 10 15.5101 10 15.3333C10 15.1565 9.92976 14.987 9.80474 14.8619C9.67971 14.7369 9.51014 14.6667 9.33333 14.6667H3.33333C2.8029 14.6667 2.29419 14.456 1.91912 14.0809C1.54405 13.7058 1.33333 13.1971 1.33333 12.6667V6C1.33333 5.82319 1.40357 5.65362 1.5286 5.5286C1.65362 5.40357 1.82319 5.33333 2 5.33333H4V6.66667C4 6.84348 4.07024 7.01305 4.19526 7.13807C4.32029 7.2631 4.48986 7.33333 4.66667 7.33333C4.84348 7.33333 5.01305 7.2631 5.13807 7.13807C5.2631 7.01305 5.33333 6.84348 5.33333 6.66667V5.33333H10.6667V6.66667C10.6667 6.84348 10.7369 7.01305 10.8619 7.13807C10.987 7.2631 11.1565 7.33333 11.3333 7.33333C11.5101 7.33333 11.6797 7.2631 11.8047 7.13807C11.9298 7.01305 12 6.84348 12 6.66667V5.33333H14C14.1768 5.33333 14.3464 5.40357 14.4714 5.5286C14.5964 5.65362 14.6667 5.82319 14.6667 6V9.33333C14.6667 9.51014 14.7369 9.67971 14.8619 9.80474C14.987 9.92976 15.1565 10 15.3333 10C15.5101 10 15.6797 9.92976 15.8047 9.80474C15.9298 9.67971 16 9.51014 16 9.33333V6C16 5.46957 15.7893 4.96086 15.4142 4.58579C15.0391 4.21071 14.5304 4 14 4ZM5.33333 4C5.33333 3.29276 5.61428 2.61448 6.11438 2.11438C6.61448 1.61428 7.29276 1.33333 8 1.33333C8.70724 1.33333 9.38552 1.61428 9.88562 2.11438C10.3857 2.61448 10.6667 3.29276 10.6667 4H5.33333Z" fill="white"/>
<rect x="10" y="10" width="11" height="11" rx="5.5" fill="#181818"/>
<path d="M17.6 16.07C17.6 16.6567 17.49 17.18 17.27 17.64C17.05 18.0933 16.75 18.45 16.37 18.71C15.99 18.97 15.5567 19.1 15.07 19.1C14.5833 19.1 14.15 18.97 13.77 18.71C13.39 18.45 13.09 18.0933 12.87 17.64C12.65 17.18 12.54 16.6567 12.54 16.07C12.54 15.4833 12.65 14.9633 12.87 14.51C13.09 14.05 13.39 13.69 13.77 13.43C14.15 13.1633 14.5833 13.03 15.07 13.03C15.5567 13.03 15.99 13.1633 16.37 13.43C16.75 13.69 17.05 14.05 17.27 14.51C17.49 14.9633 17.6 15.4833 17.6 16.07ZM16.71 16.07C16.71 15.63 16.64 15.2433 16.5 14.91C16.36 14.5767 16.1667 14.3167 15.92 14.13C15.6733 13.9433 15.39 13.85 15.07 13.85C14.7433 13.85 14.4567 13.9433 14.21 14.13C13.9633 14.3167 13.77 14.5767 13.63 14.91C13.49 15.2433 13.42 15.63 13.42 16.07C13.42 16.51 13.49 16.8967 13.63 17.23C13.77 17.5567 13.9633 17.8133 14.21 18C14.4567 18.1867 14.7433 18.28 15.07 18.28C15.39 18.28 15.6733 18.1867 15.92 18C16.1667 17.8133 16.36 17.5567 16.5 17.23C16.64 16.8967 16.71 16.51 16.71 16.07Z" fill="white"/>
</svg>
